<svg xmlns="http://www.w3.org/2000/svg" viewBox="0 0 24 24">
  <defs>
    <linearGradient id="gradient" x1="0%" y1="0%" x2="100%" y2="100%">
      <stop offset="0%" stop-color="#0dff92" />
      <stop offset="100%" stop-color="#00c6ff" />
    </linearGradient>
  </defs>
  <path 
    fill="url(#gradient)" 
    stroke="#0a0e14" 
    stroke-width="0.5"
    d="M12 3a4 4 0 0 1 4 4v2h1a2 2 0 0 1 2 2v10a2 2 0 0 1-2 2H7a2 2 0 0 1-2-2V11a2 2 0 0 1 2-2h1V7a4 4 0 0 1 4-4zm0 2a2 2 0 0 0-2 2v2h4V7a2 2 0 0 0-2-2zm-1 8v4h2v-4h-2z"
  />
  <path 
    fill="rgba(255,255,255,0.2)" 
    d="M12 1a6 6 0 0 1 6 6v1h1a2 2 0 0 1 2 2v10a2 2 0 0 1-2 2H7a2 2 0 0 1-2-2V10a2 2 0 0 1 2-2h1V7a6 6 0 0 1 6-6z"
  />
</svg>
